<svg id="Camada_1" data-name="Camada 1" xmlns="http://www.w3.org/2000/svg" viewBox="0 0 98 96">
  <defs>
    <style>
      .cls-1 {
        fill: #1d1d1b;
        fill-rule: evenodd;
      }
    </style>
  </defs>
  <path class="cls-1" d="M48.854,0A49.26584,49.26584,0,0,0,33.405,95.907c2.427.49,3.316-1.059,3.316-2.362,0-1.141-.08-5.052-.08-9.127-13.59,2.934-16.42-5.867-16.42-5.867-2.184-5.704-5.42-7.17-5.42-7.17-4.448-3.015.324-3.015.324-3.015,4.934.326,7.523,5.052,7.523,5.052,4.367,7.496,11.404,5.378,14.235,4.074a10.48529,10.48529,0,0,1,3.074-6.6c-10.839-1.141-22.243-5.378-22.243-24.283a19.268,19.268,0,0,1,5.014-13.2c-.485-1.222-2.184-6.275.486-13.038,0,0,4.125-1.304,13.426,5.052a46.57254,46.57254,0,0,1,24.427,0c9.302-6.356,13.427-5.052,13.427-5.052,2.67,6.763.97,11.816.485,13.038a18.89845,18.89845,0,0,1,5.015,13.2c0,18.905-11.404,23.06-22.324,24.283,1.78,1.548,3.316,4.481,3.316,9.126,0,6.6-.08,11.897-.08,13.526,0,1.304.89,2.853,3.316,2.364A49.26687,49.26687,0,0,0,48.854,0Z"/>
</svg>
